<svg width="38" height="38" viewBox="0 0 38 38" fill="none" xmlns="http://www.w3.org/2000/svg">
<rect x="1" y="1" width="36" height="36" rx="3" fill="#FAFAFF" stroke="#E5E7F9"/>
<path d="M25.252 11.0792C23.3324 9.43917 20.4578 9.69919 18.8532 11.6493L11.5979 20.4697C11.3617 20.7597 11.2435 21.1297 11.2731 21.4397L11.1254 26.5099C11.1155 26.95 11.2927 27.37 11.6275 27.66C11.8834 27.88 12.1984 28 12.5331 28C12.6316 28 12.7202 28 12.8186 27.97L17.7309 26.93C17.8195 26.91 17.918 26.8899 18.0066 26.8499C18.2429 26.7499 18.4496 26.5999 18.5874 26.4099L25.8132 17.6195C26.5909 16.6695 26.9649 15.4694 26.8567 14.2294C26.7484 12.9893 26.1774 11.8793 25.252 11.0792ZM17.6128 25.5799C17.6128 25.5799 17.5045 25.6499 17.4947 25.6599L12.5627 26.6999C12.5627 26.6999 12.4741 26.6999 12.4445 26.6699C12.415 26.6399 12.3953 26.5999 12.3953 26.5599L12.543 21.4197C12.543 21.4197 12.543 21.3497 12.5725 21.3197L18.2527 14.4094L23.2733 18.7096L17.6128 25.5899V25.5799ZM24.8386 16.7895L24.0904 17.7095L19.0698 13.4094L19.8179 12.4993C20.4677 11.7093 21.393 11.3093 22.3381 11.3093C23.0863 11.3093 23.8246 11.5693 24.4448 12.0893C25.1142 12.6593 25.5277 13.4694 25.5966 14.3594C25.6655 15.2494 25.4095 16.1095 24.8386 16.7995V16.7895Z" fill="#696D8B"/>
</svg>
