<svg width="20" height="20" viewBox="0 0 20 20" fill="none" xmlns="http://www.w3.org/2000/svg">
<g id="Group 7454">
<circle id="Ellipse 472" cx="10" cy="10" r="9.3" stroke="#727496" stroke-width="1.4"/>
<path id="Ellipse 473" d="M15.3 10C15.3 12.6564 14.6525 15.0274 13.6424 16.7109C12.6239 18.4084 11.3144 19.3 10 19.3C8.68563 19.3 7.3761 18.4084 6.3576 16.7109C5.34747 15.0274 4.7 12.6564 4.7 10C4.7 7.34363 5.34747 4.97264 6.3576 3.28908C7.3761 1.59159 8.68563 0.7 10 0.7C11.3144 0.7 12.6239 1.59159 13.6424 3.28908C14.6525 4.97264 15.3 7.34363 15.3 10Z" stroke="#727496" stroke-width="1.4"/>
<path id="Vector 654" d="M0.45459 10.4531H20" stroke="#727496" stroke-width="1.4"/>
<path id="Vector 655" d="M10 0.914062L10 19.0959" stroke="#727496" stroke-width="1.4"/>
</g>
</svg>
