<svg width="20" height="20" viewBox="0 0 20 20" fill="none" xmlns="http://www.w3.org/2000/svg">
<rect width="20" height="20" rx="3" fill="#757AE9"/>
<path d="M14.8467 7.74216H5.5C5.22386 7.74216 5 7.96601 5 8.24216V9.54028C5 9.68542 5.06306 9.8234 5.17281 9.91837L8.52496 12.8193C8.63471 12.9142 8.69777 13.0522 8.69777 13.1974V15.8402C8.69777 16.2161 9.09686 16.4575 9.42978 16.2832L11.4164 15.2425C11.5812 15.1562 11.6844 14.9856 11.6844 14.7996V13.1959C11.6844 13.0516 11.7468 12.9143 11.8554 12.8194L15.1756 9.91824C15.2843 9.8233 15.3467 9.68603 15.3467 9.54173V8.24216C15.3467 7.96601 15.1228 7.74216 14.8467 7.74216Z" fill="white"/>
<circle cx="6.99105" cy="6.03551" r="1.13778" fill="white"/>
<ellipse cx="12.3957" cy="6.14218" rx="1.28" ry="1.24444" fill="white"/>
<circle cx="9.62211" cy="4.29331" r="0.959999" fill="white"/>
</svg>
