<svg width="20" height="20" viewBox="0 0 20 20" fill="none" xmlns="http://www.w3.org/2000/svg">
<g id="power ups icon">
<rect id="Rectangle 115" width="20" height="20" rx="3" fill="#E1E3EF"/>
<g id="inbox">
<path id="Rectangle 672" d="M17 13.0017V8.92969H14.3965C13.6587 8.92969 12.9807 9.33597 12.6328 9.98668L12.6173 10.0158C12.2693 10.6665 11.5914 11.0728 10.8535 11.0728H8.967C8.26962 11.0728 7.64239 10.6485 7.38283 10.0012C7.12327 9.35395 6.49604 8.92969 5.79866 8.92969H3V13.0017C3 14.1063 3.89543 15.0017 5 15.0017H15C16.1046 15.0017 17 14.1063 17 13.0017Z" fill="#A9ABC1"/>
<path id="Vector 445 (Stroke)" fill-rule="evenodd" clip-rule="evenodd" d="M4.04627 6.10547C4.41681 5.13846 5.34518 4.5 6.38075 4.5H13.5656C14.5861 4.5 15.5041 5.12024 15.885 6.067L17.0265 8.90472L16.0987 9.27792L14.9572 6.4402C14.7287 5.87215 14.1779 5.5 13.5656 5.5H6.38075C5.75941 5.5 5.20239 5.88308 4.98006 6.46328L3.9045 9.27022L2.9707 8.91241L4.04627 6.10547Z" fill="#A9ABC1"/>
</g>
</g>
</svg>
