<svg width="20" height="20" viewBox="0 0 20 20" fill="none" xmlns="http://www.w3.org/2000/svg">
<path d="M9.995 20C8.91554 20 7.986 19.3403 7.61619 18.3208L7.57621 18.2009C7.45627 17.8711 7.21639 17.6212 6.89655 17.4813C6.57671 17.3513 6.22688 17.3613 5.90704 17.5112L5.7871 17.5712C4.80759 18.031 3.68815 17.8411 2.91854 17.0815C2.15892 16.3218 1.95901 15.1924 2.42878 14.2129L2.48875 14.093C2.63868 13.7831 2.64867 13.4233 2.51874 13.1034C2.3888 12.7836 2.12893 12.5437 1.7991 12.4238L1.67915 12.3838C0.659663 12.024 0 11.0845 0 10.005C0 8.92554 0.659663 7.996 1.67915 7.62618L1.7991 7.5862C2.12893 7.46626 2.37881 7.22638 2.51874 6.90654C2.65867 6.5867 2.63868 6.23688 2.48875 5.91704L2.42878 5.7971C1.96901 4.81759 2.15892 3.69815 2.91854 2.92854C3.67816 2.15892 4.80759 1.96902 5.7871 2.43878L5.90704 2.49875C6.21689 2.64868 6.56671 2.65867 6.89655 2.51874C7.21639 2.3888 7.45627 2.12894 7.57621 1.7991L7.61619 1.67916C7.97601 0.65967 8.91554 0 9.995 0C11.0745 0 12.004 0.65967 12.3738 1.67916L12.4138 1.7991C12.5337 2.12894 12.7736 2.37881 13.0935 2.51874C13.4133 2.64867 13.7631 2.63868 14.083 2.48875L14.2029 2.42879C15.1824 1.96902 16.3018 2.15892 17.0715 2.91854C17.8411 3.67816 18.031 4.8076 17.5612 5.78711L17.5012 5.90704C17.3513 6.21689 17.3413 6.56672 17.4813 6.89655C17.6212 7.22639 17.8711 7.45627 18.2009 7.57621L18.3208 7.61619C19.3403 7.97601 20 8.91554 20 9.995C20 11.0745 19.3403 12.004 18.3208 12.3738L18.2009 12.4138C17.8711 12.5337 17.6212 12.7736 17.4813 13.0935C17.3413 13.4133 17.3613 13.7631 17.5112 14.083L17.5712 14.2029C18.031 15.1824 17.8411 16.3018 17.0815 17.0715C16.3218 17.8411 15.1924 18.031 14.2129 17.5612L14.093 17.5012C13.7831 17.3513 13.4233 17.3413 13.1034 17.4713C12.7836 17.6012 12.5437 17.8611 12.4238 18.1909L12.3838 18.3108C12.024 19.3303 11.0845 19.99 10.005 19.99L9.995 20ZM6.43678 16.082C6.76661 16.082 7.09645 16.1419 7.40629 16.2719C8.06597 16.5417 8.57571 17.0815 8.81559 17.7611L8.85557 17.8811C9.06546 18.4808 9.58521 18.6906 9.995 18.6906C10.4048 18.6906 10.9245 18.4808 11.1344 17.8811L11.1744 17.7611C11.4143 17.0914 11.924 16.5517 12.5837 16.2719C13.2434 16.002 13.993 16.022 14.6327 16.3218L14.7526 16.3818C15.3223 16.6517 15.8421 16.4318 16.1319 16.1419C16.4218 15.8521 16.6417 15.3323 16.3718 14.7626L16.3118 14.6427C16.002 14.003 15.982 13.2534 16.2619 12.5937C16.5417 11.934 17.0715 11.4243 17.7511 11.1844L17.8711 11.1444C18.4708 10.9345 18.6807 10.4148 18.6807 10.005C18.6807 9.5952 18.4708 9.07546 17.8711 8.86557L17.7511 8.82559C17.0815 8.58571 16.5417 8.07596 16.2619 7.41629C15.982 6.75662 16.012 6.007 16.3118 5.36732L16.3718 5.24738C16.6417 4.67766 16.4218 4.15792 16.1319 3.86807C15.8421 3.57821 15.3223 3.35832 14.7526 3.62818L14.6327 3.68816C13.993 3.998 13.2434 4.01799 12.5837 3.73813C11.924 3.46826 11.4143 2.92854 11.1744 2.24888L11.1344 2.12893C10.9245 1.52923 10.4048 1.31934 9.995 1.31934C9.58521 1.31934 9.06546 1.52923 8.85557 2.12893L8.81559 2.24888C8.57571 2.91854 8.06597 3.45827 7.40629 3.73813C6.74662 4.00799 5.997 3.98801 5.35732 3.68816L5.23738 3.62818C4.66767 3.35832 4.14792 3.57821 3.85806 3.86807C3.56821 4.15792 3.34832 4.67766 3.61819 5.24738L3.67815 5.36732C3.988 6.007 3.998 6.75662 3.72813 7.41629C3.45827 8.07596 2.91854 8.58571 2.23888 8.82559L2.11894 8.86557C1.51924 9.07546 1.30934 9.5952 1.30934 10.005C1.30934 10.4148 1.51924 10.9345 2.11894 11.1444L2.23888 11.1844C2.90854 11.4243 3.44827 11.934 3.72813 12.5937C4.00799 13.2534 3.978 14.003 3.67815 14.6427L3.61819 14.7626C3.34832 15.3323 3.55821 15.8521 3.85806 16.1419C4.15792 16.4318 4.66767 16.6517 5.23738 16.3818L5.35732 16.3218C5.69715 16.1619 6.06696 16.082 6.43678 16.082Z" fill="#727496"/>
<path d="M9.99492 13.7828C7.90596 13.7828 6.2168 12.0836 6.2168 10.0047C6.2168 7.92572 7.91595 6.22656 9.99492 6.22656C12.0739 6.22656 13.773 7.92572 13.773 10.0047C13.773 12.0836 12.0739 13.7828 9.99492 13.7828ZM9.99492 7.52592C8.63559 7.52592 7.52615 8.63536 7.52615 9.99468C7.52615 11.354 8.63559 12.4634 9.99492 12.4634C11.3542 12.4634 12.4637 11.354 12.4637 9.99468C12.4637 8.63536 11.3542 7.52592 9.99492 7.52592Z" fill="#727496"/>
</svg>
